<svg xmlns="http://www.w3.org/2000/svg" viewBox="0 0 42 42" width="42" height="42"> 

<g transform="translate(0.000000,512.000000) scale(0.100000,-0.100000)"
fill="#000000" stroke="none">
<path d="M2495 5106 c-37 -17 -80 -62 -94 -99 -7 -17 -11 -121 -11 -261 l0
-233 -67 -7 c-410 -41 -837 -250 -1148 -561 -311 -311 -520 -738 -561 -1147
l-7 -68 -234 0 c-260 0 -277 -3 -330 -63 -56 -64 -56 -150 0 -214 53 -60 70
-63 330 -63 l234 0 7 -68 c41 -409 250 -836 561 -1147 311 -311 738 -520 1148
-561 l67 -7 0 -234 c0 -260 3 -277 63 -330 64 -56 150 -56 214 0 60 53 63 70
63 330 l0 234 68 7 c409 41 836 250 1147 561 311 311 520 738 561 1148 l7 67
234 0 c260 0 277 3 330 63 56 64 56 150 0 214 -53 60 -70 63 -330 63 l-234 0
-7 68 c-41 409 -250 836 -561 1147 -311 311 -738 520 -1147 561 l-68 7 0 234
c0 254 -4 276 -56 325 -52 48 -119 61 -179 34z m-105 -1215 l0 -279 -42 -7
c-109 -19 -279 -91 -391 -167 -80 -54 -187 -157 -247 -237 -88 -116 -174 -306
-195 -428 l-7 -43 -280 0 -280 0 7 53 c83 651 599 1212 1245 1356 101 22 132
27 168 30 l22 1 0 -279z m535 247 c646 -147 1157 -706 1240 -1355 l7 -53 -280
0 -280 0 -7 43 c-21 122 -107 312 -195 428 -60 80 -167 183 -247 237 -112 76
-282 148 -390 167 l-43 7 0 280 0 280 53 -7 c28 -4 93 -16 142 -27z m-535
-946 c0 -124 65 -202 170 -202 105 0 170 78 170 202 0 37 3 68 8 68 22 0 111
-33 162 -61 157 -84 298 -249 346 -408 8 -25 14 -49 14 -53 0 -5 -31 -8 -68
-8 -124 0 -202 -65 -202 -170 0 -105 78 -170 202 -170 37 0 68 -3 68 -7 0 -5
-6 -29 -14 -54 -48 -159 -189 -324 -346 -408 -51 -28 -140 -61 -162 -61 -5 0
-8 31 -8 68 0 124 -65 202 -170 202 -105 0 -170 -78 -170 -202 0 -37 -3 -68
-7 -68 -23 0 -112 33 -163 61 -157 84 -298 249 -346 408 -8 25 -14 49 -14 54
0 4 31 7 68 7 124 0 202 65 202 170 0 105 -78 170 -202 170 -37 0 -68 3 -68 8
0 19 31 104 53 148 81 159 252 309 410 359 68 21 67 22 67 -53z m-875 -844
c19 -109 91 -279 167 -391 54 -80 157 -187 237 -247 116 -88 306 -174 429
-195 l42 -7 0 -280 0 -280 -52 7 c-299 38 -612 182 -848 390 -288 254 -488
624 -535 993 l-7 52 280 0 280 0 7 -42z m2650 -10 c-47 -369 -247 -739 -535
-993 -236 -208 -549 -352 -847 -390 l-53 -7 0 280 0 280 43 7 c108 19 278 91
390 167 80 54 187 157 247 237 88 116 174 306 195 429 l7 42 280 0 280 0 -7
-52z"/>
<path d="M2475 2867 c-62 -21 -97 -42 -139 -84 -123 -121 -123 -324 0 -447 62
-61 134 -91 224 -91 60 0 86 5 130 26 70 33 126 89 159 159 54 115 27 262 -65
354 -77 77 -215 114 -309 83z m101 -298 c10 -17 -13 -36 -27 -22 -12 12 -4 33
11 33 5 0 12 -5 16 -11z"/>
</g>
</svg>
